<svg width="27" height="23" viewBox="0 0 27 23" fill="none" xmlns="http://www.w3.org/2000/svg">
<path d="M1.125 6L11.9738 13.2325C12.4257 13.534 12.9567 13.6949 13.5 13.6949C14.0433 13.6949 14.5743 13.534 15.0262 13.2325L25.875 6M3.875 21.125H23.125C23.8543 21.125 24.5538 20.8353 25.0695 20.3195C25.5853 19.8038 25.875 19.1043 25.875 18.375V4.625C25.875 3.89565 25.5853 3.19618 25.0695 2.68046C24.5538 2.16473 23.8543 1.875 23.125 1.875H3.875C3.14565 1.875 2.44618 2.16473 1.93046 2.68046C1.41473 3.19618 1.125 3.89565 1.125 4.625V18.375C1.125 19.1043 1.41473 19.8038 1.93046 20.3195C2.44618 20.8353 3.14565 21.125 3.875 21.125Z" stroke="black" stroke-width="2" stroke-linecap="round" stroke-linejoin="round"/>
</svg>
