<svg width="20" height="20" viewBox="0 0 20 20" fill="none" xmlns="http://www.w3.org/2000/svg">
<path d="M2.5 4.16667C2.5 3.72464 2.67559 3.30072 2.98816 2.98816C3.30072 2.67559 3.72464 2.5 4.16667 2.5H6.9C7.07483 2.50013 7.24519 2.55525 7.38696 2.65754C7.52874 2.75984 7.63475 2.90413 7.69 3.07L8.93833 6.81417C9.00158 7.00445 8.9941 7.21116 8.91726 7.39637C8.84042 7.58158 8.69938 7.73288 8.52 7.8225L6.63917 8.76417C7.5611 10.8046 9.19538 12.4389 11.2358 13.3608L12.1775 11.48C12.2671 11.3006 12.4184 11.1596 12.6036 11.0827C12.7888 11.0059 12.9956 10.9984 13.1858 11.0617L16.93 12.31C17.096 12.3653 17.2404 12.4714 17.3427 12.6134C17.445 12.7553 17.5 12.9259 17.5 13.1008V15.8333C17.5 16.2754 17.3244 16.6993 17.0118 17.0118C16.6993 17.3244 16.2754 17.5 15.8333 17.5H15C8.09667 17.5 2.5 11.9033 2.5 5V4.16667Z" stroke="black" stroke-width="2" stroke-linecap="round" stroke-linejoin="round"/>
</svg>
