<svg width="428" height="223" viewBox="0 0 428 223" fill="none" xmlns="http://www.w3.org/2000/svg">
<path d="M140.71 192.185C82.1427 199.689 44.4559 189.183 -8 150.661V-127H431V168C382 183 361.229 219.286 286.364 205.702C206.407 191.194 199.277 184.681 140.71 192.185Z" fill="#6D4C41" fill-opacity="0.8"/>
<path d="M289.369 190.097C354.206 197.858 454 235 454 147.154V-140H-32V147.154C-13.5824 183.371 45.2413 234.672 128.121 220.624C216.638 205.619 224.531 182.336 289.369 190.097Z" fill="#6D4C41" fill-opacity="0.45"/>
<path d="M324.61 185.097C391.716 192.858 495 230 495 142.154V-145H-8.00003V142.154C11.0619 178.371 71.9431 229.672 157.722 215.624C249.335 200.619 257.505 177.336 324.61 185.097Z" fill="#6D4C41" fill-opacity="0.45"/>
</svg>
