<svg width="25" height="28" viewBox="0 0 25 28" fill="none" xmlns="http://www.w3.org/2000/svg">
<path d="M20.2784 19.9034L14.4443 25.7375C14.1891 25.9929 13.8861 26.1955 13.5526 26.3337C13.2192 26.472 12.8617 26.5431 12.5007 26.5431C12.1397 26.5431 11.7822 26.472 11.4487 26.3337C11.1152 26.1955 10.8123 25.9929 10.5571 25.7375L4.72163 19.9034C3.18331 18.365 2.13572 16.405 1.71133 14.2712C1.28693 12.1374 1.5048 9.9257 2.33738 7.91575C3.16996 5.90579 4.57986 4.18786 6.38879 2.97919C8.19772 1.77052 10.3244 1.1254 12.5 1.1254C14.6756 1.1254 16.8023 1.77052 18.6112 2.97919C20.4201 4.18786 21.83 5.90579 22.6626 7.91575C23.4952 9.9257 23.7131 12.1374 23.2887 14.2712C22.8643 16.405 21.8167 18.365 20.2784 19.9034V19.9034Z" stroke="black" stroke-width="2" stroke-linecap="round" stroke-linejoin="round"/>
<path d="M16.625 12.125C16.625 13.219 16.1904 14.2682 15.4168 15.0418C14.6432 15.8154 13.594 16.25 12.5 16.25C11.406 16.25 10.3568 15.8154 9.58318 15.0418C8.8096 14.2682 8.375 13.219 8.375 12.125C8.375 11.031 8.8096 9.98177 9.58318 9.20818C10.3568 8.4346 11.406 8 12.5 8C13.594 8 14.6432 8.4346 15.4168 9.20818C16.1904 9.98177 16.625 11.031 16.625 12.125V12.125Z" stroke="black" stroke-width="2" stroke-linecap="round" stroke-linejoin="round"/>
</svg>
